<svg xmlns="http://www.w3.org/2000/svg" width="128" height="128" viewBox="0 0 128 128"><rect width="100%" height="100%" fill="#191414"/><path fill="#FFFFFF" d="M33.21 64.085h4.32q1.59 0 2.77-.4 1.19-.39 1.97-1.14.79-.74 1.17-1.8.39-1.07.39-2.38 0-1.24-.39-2.26-.38-1.01-1.16-1.72-.77-.7-1.95-1.08-1.19-.38-2.8-.38h-4.32zm-5.78-15.63h10.1q3.12 0 5.4.73t3.76 2.04q1.48 1.32 2.2 3.14.72 1.83.72 4 0 2.26-.75 4.14t-2.26 3.24q-1.5 1.35-3.77 2.1-2.27.76-5.3.76h-4.32v10.94h-5.78zm46.22 4.6h-13.8v9.2H71.5v4.63H59.85v12.66h-5.81v-31.09h19.61zm10.51 11.03h4.33q1.59 0 2.77-.4 1.18-.39 1.97-1.14.78-.74 1.17-1.8.39-1.07.39-2.38 0-1.24-.39-2.26-.39-1.01-1.16-1.72-.78-.7-1.96-1.08t-2.79-.38h-4.33zm-5.78-15.63h10.11q3.11 0 5.39.73t3.76 2.04q1.49 1.32 2.21 3.14.72 1.83.72 4 0 2.26-.75 4.14-.76 1.88-2.26 3.24-1.51 1.35-3.77 2.1-2.27.76-5.3.76h-4.33v10.94h-5.78z"/></svg>